<svg xmlns="http://www.w3.org/2000/svg" viewBox="0 0 409.61 409.6"><defs><style>.cls-1{fill:#585858;}</style></defs><title>communication-icon_1</title><g id="Слой_2" data-name="Слой 2"><g id="Слой_1-2" data-name="Слой 1"><path class="cls-1" d="M314.41,409.6c-7.2-1.16-14.47-2-21.6-3.55-25.27-5.34-48.52-15.77-70.69-28.75-32.6-19.1-61.67-42.83-89.07-68.68-24.35-23-47.34-47.27-68-73.66-24-30.56-44.76-63-56.72-100.28C-.12,108.37-3.12,81.64,4,54.42,7,42.58,13.4,32.89,23.65,26.29,36,18.36,48.62,11,61.22,3.51,63.8,2,66.8,1.15,69.61,0h8c9.08,2.37,14.77,8.58,19.76,16.2C114,41.61,131,66.78,147.83,92.07c6.86,10.32,6.75,21.16-.34,30a33.83,33.83,0,0,1-5.49,5.2c-9.1,7.18-18.28,14.27-27.42,21.39-6.61,5.15-7.41,9.48-3.54,17,11.17,21.6,25.77,40.7,42.4,58.33,20.59,21.83,41.72,43.14,66.62,60.18,8.11,5.56,16.78,10.32,25.37,15.13,5.88,3.29,10.63,1.95,15-3.65,7-8.91,13.9-17.88,20.87-26.82,10.75-13.79,23.1-15.83,37.57-6.18,24.83,16.55,49.57,33.24,74.54,49.58,7.61,5,13.84,10.67,16.18,19.77v8c-1.22,2.92-2.12,6-3.72,8.74C398.72,360.9,391.54,373.06,384,385a45.72,45.72,0,0,1-29.25,20.68c-7,1.63-14.09,2.64-21.14,3.93ZM327,396c3.54-.37,10.18-.86,16.77-1.77,14-1.95,24.83-8.64,31.85-21.37,5.59-10.14,11.88-19.89,17.81-29.84,4.1-6.87,2.88-12.26-3.81-16.73q-39.54-26.42-79.11-52.78c-7.47-5-12.3-4.18-17.86,2.92-7.3,9.34-14.51,18.77-21.87,28.06-8.39,10.61-20.14,13.1-32,6.75-6.34-3.38-12.62-6.89-18.73-10.67-21.92-13.55-40.71-30.92-58.9-49C137,227.74,114.54,202.55,98.84,172c-6.81-13.24-4.68-24.72,7.09-33.89,9.15-7.13,18.32-14.22,27.44-21.37,6.71-5.26,7.58-10.27,2.94-17.26Q109.78,59.55,83.15,19.66C79,13.39,73.42,12.12,67,15.93c-10.88,6.46-21.71,13-32.56,19.51-9,5.39-15,13-17.54,23.27-5.08,20.4-3.88,40.7,1.2,60.89,8.33,33.09,24.88,62.15,44.54,89.57,26,36.24,56.52,68.38,89.4,98.34,29.45,26.84,60.79,51.08,96.79,68.69C272.52,387.79,297.23,395.63,327,396Z"/><path class="cls-1" d="M233.38,58.55c56,2.33,106.36,42.58,119.49,100,2.06,9,2.53,18.43,3.38,27.69.47,5.05-2.35,8.25-6.47,8.35s-6.47-3-7.13-8c-1.36-10.4-2-21.07-4.8-31.07-9-31.56-28.6-54.93-57.47-70.39a109.17,109.17,0,0,0-48.95-13,38.47,38.47,0,0,1-6-.6,6.08,6.08,0,0,1-5.3-6.1c-.19-3.49,1.43-6.12,4.89-6.74C227.75,58.16,230.6,58.55,233.38,58.55Z"/><path class="cls-1" d="M225.7,99.23a88.84,88.84,0,0,1,84.38,85.85c.21,6-2.19,9.44-6.61,9.53-4.23.09-6.65-3.09-7-8.9-1.93-30.59-16.57-52.78-44.18-66.2A66.52,66.52,0,0,0,225.69,113a35.52,35.52,0,0,1-5.16-.52c-3.82-.73-5.9-3.34-5.72-7s2.68-6,6.5-6.27C222.76,99.14,224.24,99.23,225.7,99.23Z"/><path class="cls-1" d="M223.93,143.43c24.21.79,45.13,22.16,45.28,46.29,0,4.72-2.52,7.91-6.5,8.13-3.7.21-6.71-2.54-7.06-7.08-.82-10.59-4.66-19.59-13.13-26.33a33.48,33.48,0,0,0-17.88-7.22,32.94,32.94,0,0,1-4.35-.55c-3.86-.91-5.76-3.49-5.46-7.17s2.82-5.84,6.7-6.06C222.33,143.39,223.13,143.43,223.93,143.43Z"/></g></g></svg>