<svg xmlns="http://www.w3.org/2000/svg" viewBox="0 0 409.65 409.65"><defs><style>.cls-1{fill:#585858;}</style></defs><title>help-icon</title><g id="Слой_2" data-name="Слой 2"><g id="Слой_1-2" data-name="Слой 1"><path class="cls-1" d="M0,216.8v-24a27.67,27.67,0,0,0,.68-3.45c2-28.57,9.53-55.64,23.35-80.68C55.87,51,104.28,15.66,169.12,3.23,176.93,1.73,184.9,1.06,192.8,0h24a21,21,0,0,0,3.09.66c28.59,1.95,55.77,9.29,80.73,23.25C368,61.59,404.54,119.23,409.27,196.26a187.81,187.81,0,0,1-23.75,104.65c-37.58,67.21-95.25,103.62-172.12,108.36-36.94,2.28-72.19-5.84-104.68-23.69Q22,337.94,3.23,240.45C1.73,232.65,1.06,224.69,0,216.8Zm377.6-12.08C377.53,109.39,300.26,32.11,204.92,32S31.94,109.47,32,204.88,109.34,377.49,204.68,377.6,377.66,300.13,377.6,204.72Z"/><path class="cls-1" d="M188.83,229.92c0-6.63-.07-13.26,0-19.88.13-9.48,5.62-16.13,14.71-16.92,10.55-.93,19.86-4.14,26.42-13.22,7.78-10.79,9.16-22.6,3.41-34.66-6-12.52-16.17-18.94-29.7-18.43-16.37.62-28.41,12.48-30.54,29.34-.19,1.51-.25,3-.38,4.54-.82,9.3-7.87,15.83-16.63,15.43s-15.47-7.53-15.25-16.87C141.45,135.79,151,117,170,104.31c21.42-14.26,44.15-15.11,66.25-2.07,22.86,13.49,33.58,34.87,32.34,62.07a65.2,65.2,0,0,1-44,58.3c-2.92,1-4,2.19-3.83,5.4.26,7.31.14,14.63.06,22-.11,10.15-6.87,17.39-16.06,17.35S188.94,260,188.84,249.8C188.78,243.17,188.83,236.55,188.83,229.92Z"/><path class="cls-1" d="M205.37,291.59a19.89,19.89,0,1,1-20.5,19.14A19.94,19.94,0,0,1,205.37,291.59Z"/></g></g></svg>