<svg xmlns="http://www.w3.org/2000/svg" viewBox="0 0 360.48 383.97"><defs><style>.cls-1{fill:#585858;}</style></defs><title>registration-icon</title><g id="Слой_2" data-name="Слой 2"><g id="Слой_1-2" data-name="Слой 1"><path class="cls-1" d="M291.87,0c.65.91,1.28,1.84,2,2.73,5.07,6.59,11.17,12.77,8,22.65h35.83V203.9H326.79V131.82H52.9V120.61H326.41V36.89h-24V64.28H257.18V36.89H228.36V64.33H183.29V37H154.71V64.26H109.47V36.91H80.66v27.4H35.45V36.86H11.26v83.65H41.19v11.14h-30V327.27H167.83v11.19H0V25.56H34.55c.41-.49.73-.71.7-.86-1.71-9.13,3.25-15.64,8.6-22,.72-.85,1.35-1.79,2-2.69H70.62a24.24,24.24,0,0,0,2.15,3.41c5.37,6,9.36,12.5,7.9,21.06,0,.19.23.42.45.79h28.25a57.47,57.47,0,0,0,0-6,12,12,0,0,1,3.12-9.56c2.54-3,4.62-6.43,6.91-9.67h24.75a51.58,51.58,0,0,0,3.09,4.2c5.15,5.72,8.9,11.91,7.4,20.07-.05.28.27.64.4.91h28.78c-3.66-9.89,2.92-15.86,7.82-22.49.66-.9,1.34-1.79,2-2.69h24.75a24.83,24.83,0,0,0,2.15,3.41c5.3,6,9.41,12.48,7.9,21.06,0,.18.22.41.44.8h28.26a53.26,53.26,0,0,0,0-5.67,12.84,12.84,0,0,1,3.34-10.23c2.48-2.92,4.49-6.23,6.7-9.37ZM69.27,53.15c0-11.69.29-23-.22-34.38-.12-2.51-2.57-6.29-4.77-7-3.6-1.22-7.92-.79-11.83-.27-1.5.2-3,2.41-4,4a11.72,11.72,0,0,0-1.75,5.43c-.18,7.86-.08,15.73-.08,23.6v8.63Zm74,0V21.81c0-7.1-3.44-10.56-10.49-10.56-1.88,0-3.76-.11-5.62.05a4.13,4.13,0,0,0-2.54,1.1c-2.51,2.82-4.39,5.74-4.12,10,.42,6.34.11,12.73.11,19.1V53.13Zm73.74,0c0-11.63.31-22.87-.23-34.08-.12-2.63-2.56-6.56-4.83-7.37-3.55-1.27-7.92-.78-11.83-.23-1.5.2-2.95,2.45-3.94,4.06a10.53,10.53,0,0,0-1.7,5.06c-.16,9.62-.08,19.24-.07,28.86,0,1.2.11,2.4.17,3.7Zm74,0V21.67c0-6.88-3.49-10.42-10.26-10.42-1.87,0-3.75-.1-5.61,0a4.07,4.07,0,0,0-2.63.93c-2.25,2.77-4.44,5.37-4.27,9.54.37,9.1.11,18.23.11,27.34v4Z"/><path class="cls-1" d="M150.4,249.14h16.07v11H150.42v37.56h10v11.11H41.63V152.13H296V185.6H285V163.33H247.63v23.38H236.5V163.43H198.87v48.2H150.4ZM89.92,249V212h-37v37Zm48.72,0V212h-37v37ZM90,260.73H53v36.8H90Zm11.6-.16v37h37v-37ZM52.82,200.25H90V163.34H52.82Zm85.86-36.7h-37v36.67h37Zm48.72-.17h-37v36.83h37Z"/><path class="cls-1" d="M210.11,362.36,217,354.1c36.93,29.76,86.76,22.13,113.72-10.57A80.45,80.45,0,0,0,215.91,231.6c-32.62,28.47-38.12,79.72-6.55,115.2L201.57,354c-27.34-27.07-36.52-80.93-2.95-120.74a91.42,91.42,0,0,1,131.8-8.93c38.4,34.64,40.3,94.66,4.06,131.78C297.47,394.06,241.61,390.33,210.11,362.36Z"/><path class="cls-1" d="M275.88,294.7H317v11.17H265V233.09h10.85Z"/><path class="cls-1" d="M105.91,91.06v10.72H95V91.06Z"/><path class="cls-1" d="M168.51,90.92h10.74v10.77H168.51Z"/><path class="cls-1" d="M253.65,91.1v10.64H242.74V91.1Z"/></g></g></svg>