<svg xmlns="http://www.w3.org/2000/svg" viewBox="0 0 409.44 352.8">
    <title>tickets-icon</title>
    <g id="Слой_2" data-name="Слой 2">
        <g id="Слой_1-2" data-name="Слой 1">
            <path class="cls-1"
                d="M175.64,252.19c12.39,0,24.78,0,37.17,0,4.82,0,7.93,2.24,8.79,6,1.17,5.09-2,9.39-7.63,9.91-2.78.26-5.59.09-8.39.09H140.83a26.62,26.62,0,0,1-4.38-.21c-4.58-.78-7.21-3.94-7-8.24s3.2-7.32,7.83-7.47c6-.19,12-.07,18-.08Z" />
            <path class="cls-1"
                d="M211.22,128.45c.05,4.09-2.26,6.7-7.64,8.45q-22.58,7.35-45.16,14.63c-8.61,2.79-17.18,5.67-25.83,8.31a7.63,7.63,0,0,1-9.16-3.85,7.4,7.4,0,0,1,1.34-9.18,10.37,10.37,0,0,1,4-2.43q35.44-11.64,70.95-23.08C206,119.31,211.16,122.74,211.22,128.45Z" />
            <path class="cls-1"
                d="M0,118.67c1.46-3.6,4.19-5.49,7.86-6.68Q178.74,56.55,349.56,1C356.94-1.4,360.4.41,362.84,7.9q22.85,70.23,45.65,140.47c2.32,7.16.51,10.66-6.75,13q-31.49,10.29-63,20.5a7.91,7.91,0,0,0-3.74,2.16h19c12.93,0,25.86,0,38.79,0C400,184.09,403,187,403,194.22q0,74.19,0,148.38c0,7.39-3.12,10.19-11.09,10.19H219.53q-92.17,0-184.37,0a39.86,39.86,0,0,1-5.57-.34A7.12,7.12,0,0,1,23.05,346a38.32,38.32,0,0,1-.36-5.57q0-72.39-.05-144.77a22.63,22.63,0,0,0-.83-6.68Q11.58,157,1.12,125.16A24,24,0,0,0,0,122.67Zm38.68,81.64v4.34q0,63.78-.08,127.56c0,3.66.95,4.66,4.64,4.66q169.55-.15,339.09-.09c1.43,0,2.85-.12,4.44-.19V200.38H99.09v5.07q0,40.78,0,81.58c0,6.21-3.06,9.94-8,10s-8-3.59-8-9.82c0-.8,0-1.6,0-2.4v-84.5ZM349.25,17.89l-273.75,89c3.86,11.78,7.6,23.13,11.31,34.5,1.61,4.93,3.35,9.83,4.73,14.83a7.8,7.8,0,0,1-5,9.62c-4,1.35-7.94-.44-9.87-4.55a32.08,32.08,0,0,1-1.27-3.35q-6.59-20.1-13.17-40.22c-.6-1.85-1.32-3.66-2.11-5.83l-42,13.68c6.07,18.63,12,36.68,17.76,54.82.95,3,2.3,3.79,5.31,3.78q118-.12,236-.11a20.73,20.73,0,0,0,6.25-1q35.89-11.58,71.76-23.31l36.37-11.79Z" />
            <path class="cls-1"
                d="M246.83,221.66H353.19c7.48,0,11.15,2.54,11.29,7.76s-3.81,8.24-11.34,8.24q-106.15,0-212.31,0a25.08,25.08,0,0,1-5.54-.53,7.42,7.42,0,0,1-5.85-7.92,7.53,7.53,0,0,1,6.65-7.31,37.22,37.22,0,0,1,5.18-.22Z" />
            <path class="cls-1"
                d="M336,252.2c6.52,0,13.05-.07,19.57,0,5.29.07,8.78,3.19,8.91,7.72s-3.34,8.12-8.5,8.19q-20.18.24-40.33,0c-5.21-.06-8.59-3.62-8.48-8.17s3.52-7.66,8.86-7.73C322.69,252.13,329.34,252.2,336,252.2Z" />
            <path class="cls-1"
                d="M188.32,320.77c-2.53-.11-5.07-.06-7.57-.38a7.83,7.83,0,0,1-6.81-7.64c0-3.63,2.59-7.29,6.32-7.57a105.59,105.59,0,0,1,16.3,0c4,.32,6.56,4,6.36,7.88a7.63,7.63,0,0,1-6.63,7.33C193.66,320.71,191,320.65,188.32,320.77Z" />
            <path class="cls-1"
                d="M144,321.16a70.73,70.73,0,0,1-7.57-.05,7.79,7.79,0,0,1-6.95-7.5c-.13-3.73,2.61-7.46,6.56-7.76a101.69,101.69,0,0,1,15.9,0c4.07.32,6.59,3.82,6.5,7.75a7.57,7.57,0,0,1-6.87,7.51A70.77,70.77,0,0,1,144,321.16Z" />
            <path class="cls-1"
                d="M83.09,317.12c0-5.71,3.29-9.38,8.15-9.23s7.94,4,7.85,9.64-3.41,9.33-8.26,9.22S83,323,83.09,317.12Z" />
            <path class="cls-1"
                d="M337.46,55.42c0,3.71-2.36,6.53-7.07,8.09q-17.06,5.63-34.15,11.14L127.67,129.41A36.75,36.75,0,0,1,121.9,131a7.55,7.55,0,0,1-8.41-5.21,7.66,7.66,0,0,1,3.45-9.29,20.47,20.47,0,0,1,4-1.7q101.75-33.08,203.5-66.1a21.87,21.87,0,0,1,4.25-1.07A8,8,0,0,1,337.46,55.42Z" />
            <path class="cls-1"
                d="M299.63,105.17a7.6,7.6,0,0,1-7.69-5.74c-.86-3.76.1-6.93,3.62-8.86a33.68,33.68,0,0,1,5.54-2.21c11.26-3.69,22.51-7.39,33.8-11,5.84-1.85,10.32.15,11.62,5,1,3.84-.41,7.82-4.38,9.2-13.57,4.7-27.27,9-40.93,13.46A6.83,6.83,0,0,1,299.63,105.17Z" />
            <path class="cls-1"
                d="M323,148.5a8,8,0,0,1-5.43,7.24c-4.25,1.54-8.54,3-12.9,4.2a7.79,7.79,0,0,1-9.44-4.73c-1.54-4-.06-8.27,4.09-10a93.81,93.81,0,0,1,14.4-4.68C318.56,139.42,323.08,143.58,323,148.5Z" />
            <path class="cls-1"
                d="M353.68,127.24c5.61.15,8.08,2.15,9.29,5.6s-.16,7.46-3.52,8.88A110.42,110.42,0,0,1,343.61,147c-3.41.86-7-1.79-8.13-5.07s-.17-7.64,3.06-9.08C344,130.39,349.68,128.68,353.68,127.24Z" />
            <path class="cls-1"
                d="M305.66,299.87c13.28,0,26.56-.06,39.84,0,10.77.08,17.89,3.2,18.16,7.73s-6.81,8.12-17.32,8.18q-41.05.24-82.12,0c-10.6-.07-17.48-3.63-17.26-8.17s7.18-7.67,18-7.74C278.56,299.8,292.11,299.87,305.66,299.87Z" />
        </g>
    </g>
</svg>